<?xml version="1.0" encoding="UTF-8" standalone="no"?>
<svg
   viewBox="2384.07 2849.9 663.9 684.2"
   version="1.1"
   id="svg5549"
   xmlns="http://www.w3.org/2000/svg">
  <defs
     id="defs5553" />
  <path
     d="m 2958,2894.0135 c -14,25 -39,57 -55,73 l -30,27 -76,-11 c -58,-9 -96,-8 -158,1 -79,11 -82,11 -106,-11 -13,-13 -36,-43 -51,-66 -15,-24 -30,-43 -33,-43 -10,0 -47,146 -60,234 -13,100 0,211 42,338 16,51 31,94 33,96 2,2 18,-22 35,-52 46,-79 113,-136 162,-136 21,0 41,5 44,10 4,7 12,7 25,0 58,-31 129,12 201,122 l 37,58 16,-40 c 59,-148 79,-316 52,-447 -9,-44 -24,-107 -34,-139 l -18,-58 z m -361,292 c 24,11 53,33 64,50 26,36 22,40 -58,64 -78,23 -127,1 -139,-62 -15,-83 29,-101 133,-52 z m 371,24 c 2,33 -2,48 -22,70 -21,25 -31,29 -69,27 -25,-1 -64,-10 -88,-20 l -42,-19 34,-38 c 42,-49 81,-66 139,-63 l 45,2 z"
     stroke="#ff0000"
     stroke-width="0.1"
     fill="#000000"
     id="path5547" />
</svg>
