<svg
   viewBox="1322.16 2859.9 730.9 723.7"
   xmlns="http://www.w3.org/2000/svg">
  <path
     d="m 1812.2649,2871.4825 c 7,7 13,18 13,23 0,5 26,35 58,67 48,46 62,69 78,119 20,66 27,72 55,47 16,-14 18,-11 29,37 14,59 8,240 -10,301 -14,47 -58,101 -77,94 -8,-3 -11,-2 -8,4 9,15 -64,23 -105,11 -26,-8 -52,-28 -80,-61 -57,-68 -86,-68 -149,-1 -55,58 -78,71 -126,71 -81,0 -136,-56 -156,-157 -16,-84 -16,-213 0,-271 12,-41 13,-43 30,-28 28,25 35,20 55,-46 16,-50 32,-75 77,-121 32,-32 61,-67 64,-78 4,-10 9,-19 13,-19 121,-7 228,-3 239,8 z m 71,435 c -9,1 -15,4 -13,7 5,8 -57,46 -68,42 -4,-1 -6,2 -5,6 2,5 -10,22 -27,40 -24,25 -32,29 -44,19 -12,-10 -12,-9 0,10 8,13 17,23 22,23 4,0 5,5 1,12 -4,6 -3,8 3,5 5,-3 28,-1 52,5 32,8 41,15 37,27 -5,13 -4,13 8,-2 7,-9 21,-17 30,-17 53,0 86,-53 86,-136 v -57 l -33,8 c -17,4 -40,8 -49,8 z m -468,44 c 0,123 74,164 200,110 l 35,-14 -61,-60 c -38,-38 -77,-66 -105,-76 -68,-24 -69,-24 -69,40 z"
     stroke="#ff0000"
     stroke-width="0.1"
     fill="#000000"
     id="path4059" />
</svg>
