<?xml version="1.0" encoding="UTF-8" standalone="no"?>
<svg
   viewBox="311.277 385.9 719.1 850.8"
   version="1.1"
   id="svg7973"
   xmlns="http://www.w3.org/2000/svg">
  <defs
     id="defs7977" />
  <path
     d="m 553,392.5599 c -114,24 -170,93 -203,253 -6,32 -18,70 -26,85 -24,47 -12,164 21,202 7,8 16,30 20,48 9,42 91,165 144,217 l 41,39 v -51 c 0,-64 20,-113 60,-147 79,-66 180,10 183,139 1,31 6,53 12,52 24,-8 146,-175 165,-226 12,-31 30,-74 41,-97 21,-44 26,-142 9,-175 -6,-10 -21,-62 -35,-114 -29,-116 -63,-170 -127,-203 -40,-20 -65,-25 -155,-28 -59,-2 -127,1 -150,6 z m -58,245 c 98,86 152,200 134,284 -18,85 -117,63 -177,-39 -24,-40 -27,-56 -30,-172 -3,-70 -1,-128 3,-128 4,0 36,25 70,55 z m 418,-34 c -6,6 -9,17 -7,24 7,18 -16,30 -27,14 -4,-7 -11,-10 -16,-6 -4,5 -1,13 7,18 11,8 9,9 -10,4 -24,-7 -24,-6 -6,8 17,12 22,12 34,1 7,-8 18,-14 23,-14 14,0 11,26 -6,40 -13,11 -13,14 2,26 17,12 17,13 1,19 -10,4 -15,11 -12,16 3,5 10,7 15,4 5,-4 9,-2 9,3 0,16 -13,22 -25,12 -8,-7 -21,-7 -36,-1 -13,5 -19,10 -14,11 11,0 -15,20 -28,20 -16,0 19,-39 40,-45 13,-3 23,-13 22,-23 0,-9 -3,-12 -5,-5 -3,7 -13,9 -22,6 -15,-4 -15,-3 -2,6 13,9 13,11 -2,11 -9,0 -23,9 -31,20 -8,11 -17,17 -21,12 -4,-4 -6,0 -4,8 2,9 -9,18 -29,24 -34,10 -41,20 -23,31 6,3 10,1 10,-5 0,-6 4,-9 8,-6 5,3 18,-3 29,-14 12,-10 23,-17 26,-14 6,7 57,-18 57,-28 0,-4 5,-8 10,-8 6,0 10,12 10,27 0,22 2,25 10,13 7,-11 8,-6 6,17 -5,37 -13,53 -27,53 -6,0 -3,-7 5,-16 9,-8 13,-20 10,-26 -4,-5 -13,4 -21,21 -9,17 -19,31 -24,31 -5,0 -9,8 -9,17 0,15 2,14 15,-3 8,-10 15,-14 15,-8 0,18 -51,64 -64,57 -6,-4 -20,-6 -31,-5 -17,2 -16,0 5,-12 33,-20 41,-20 33,1 -6,16 -5,17 11,3 11,-8 14,-16 7,-18 -6,-2 -9,-7 -6,-12 2,-4 -8,-7 -23,-7 -15,0 -21,2 -13,5 9,3 0,12 -24,23 -21,11 -41,17 -43,14 -3,-3 1,-5 9,-5 12,0 12,-2 0,-9 -17,-11 -24,-41 -9,-41 6,0 4,-8 -3,-18 -13,-15 -12,-16 3,-4 18,15 20,32 3,44 -6,4 -2,8 8,8 9,0 17,-5 17,-11 0,-5 5,-7 10,-4 6,3 10,1 10,-4 0,-6 -4,-11 -10,-11 -5,0 -17,-16 -26,-35 -15,-32 -15,-37 0,-60 9,-14 21,-25 26,-25 5,0 7,-9 5,-20 -3,-17 9,-34 26,-35 12,0 38,-33 31,-39 -3,-4 2,-4 13,0 17,7 18,6 7,-8 -11,-14 -9,-19 13,-35 15,-10 34,-26 43,-35 9,-10 18,-15 21,-13 2,3 0,10 -6,16 z"
     stroke="#ff0000"
     stroke-width="0.1"
     fill="#000000"
     id="path7971" />
  <path
     style="fill:#999999;stroke-width:1.0263"
     d="m 242.50581,584.98996 c -35.23738,-9.23519 -71.41252,-40.36191 -99.12539,-85.29199 -22.68857,-36.78431 -27.5673,-56.93078 -30.41879,-125.61281 -4.13376,-99.56745 -3.81065,-171.65245 0.79003,-176.25313 2.25791,-2.25791 49.97584,36.11064 82.95254,66.69962 50.81718,47.13772 91.04577,106.9864 110.89052,164.97353 13.20361,38.5815 16.30618,79.15755 8.42458,110.17858 -6.01836,23.6875 -21.03827,40.79622 -40.32356,45.93128 -7.63116,2.03195 -24.24581,1.71903 -33.18993,-0.62508 z"
     id="path8468"
     transform="translate(311.277,385.9)" />
  <path
     style="fill:#d40000;stroke-width:1.0263"
     d="m 491.0431,567.51127 c -5.60117,-2.58157 -17.60279,-3.94329 -29.30379,-3.32484 -11.6227,0.61431 -11.49939,0.28186 3.17311,-8.55472 18.61072,-11.20838 30.64496,-16.96688 34.74333,-16.625 3.16256,0.26382 3.79058,0.72327 4.05105,2.9637 0.16955,1.45832 -1.10049,6.89173 -2.82231,12.07426 -3.67707,11.06768 -3.80288,12.47112 -1.11792,12.47112 3.77382,0 20.98604,-14.96903 23.24086,-20.21199 1.83577,-4.26857 1.01776,-6.11684 -3.79355,-8.57138 -4.98553,-2.54343 -6.27448,-4.95561 -5.43921,-10.17912 0.64643,-4.04251 0.57033,-4.17651 -3.31782,-5.84295 -4.46848,-1.91515 -23.88334,-3.1153 -31.62241,-1.95475 -5.52741,0.82889 -6.15089,2.84516 -1.60646,5.19518 4.16414,2.15335 3.87692,4.19689 -1.25587,8.93546 -5.4103,4.99476 -34.91246,19.88599 -48.1054,24.28122 -9.49844,3.16441 -17.34802,4.17192 -17.34802,2.22666 0,-1.86426 3.97065,-3.115 9.93892,-3.13071 10.76367,-0.0283 11.15036,-2.56589 1.40002,-9.18722 -11.14986,-7.57173 -18.52302,-19.81087 -18.52302,-30.74744 0,-6.04954 2.21766,-9.1874 7.20878,-10.20003 3.05878,-0.62058 3.61231,-1.18239 3.88281,-3.94087 0.39916,-4.0705 -3.29337,-11.46519 -9.39285,-18.81019 -2.54933,-3.06992 -4.45701,-5.7598 -4.23929,-5.97753 0.72736,-0.72735 13.70018,10.17121 16.86805,14.17096 9.9201,12.52516 9.36155,22.60873 -1.84731,33.3494 -5.91327,5.66629 -6.53126,7.88786 -2.68208,9.64166 3.83629,1.74794 14.43871,1.47445 18.55444,-0.47859 4.2997,-2.04034 7.56784,-6.00757 7.56784,-9.18669 0,-1.30304 0.97255,-3.05035 2.16123,-3.88293 1.88257,-1.3186 2.69318,-1.32611 6.28681,-0.0582 8.27151,2.91835 11.0516,1.54303 11.0516,-5.46725 0,-5.42664 -2.9258,-8.82487 -9.00811,-10.46267 -7.16753,-1.93002 -15.88082,-13.52883 -26.49938,-35.27504 -13.84723,-28.35833 -14.16987,-36.06502 -2.30361,-55.02526 9.22321,-14.73712 19.94886,-25.8186 27.44938,-28.36002 5.60004,-1.89747 6.30919,-4.19203 6.00747,-19.43813 -0.23896,-12.07532 -0.0398,-13.82899 2.09768,-18.47334 1.29894,-2.82232 3.83901,-6.68901 5.6446,-8.59263 3.72038,-3.92239 12.24662,-8.31625 16.16667,-8.33124 7.60431,-0.0292 21.74083,-11.98092 29.54078,-24.97548 3.83783,-6.39375 5.25164,-13.15621 3.2538,-15.56345 -2.04454,-2.46352 2.90872,-1.98858 11.55696,1.10815 17.68326,6.33193 18.8813,5.84243 11.46094,-4.68283 -7.27962,-10.32561 -9.90765,-15.7134 -9.1456,-18.74965 1.17443,-4.67931 6.96291,-10.2746 22.69554,-21.93811 18.74807,-13.89901 26.94143,-20.65694 37.83052,-31.20277 14.32012,-13.86869 22.07024,-17.91676 22.06154,-11.52326 -0.004,3.07071 -2.91382,8.5169 -6.7167,12.57214 -5.74806,6.12948 -8.04642,16.13187 -6.17366,26.86751 0.46073,2.64118 0.54862,5.95388 0.19532,7.36155 -0.98623,3.92946 -5.44347,8.60698 -9.46698,9.93486 -6.37109,2.10265 -10.09029,0.58043 -17.77709,-7.27593 -6.05123,-6.18469 -7.45548,-7.12539 -10.63671,-7.12539 -2.73706,0 -4.20368,0.68471 -5.79217,2.70415 -1.16989,1.48728 -2.12708,3.49289 -2.12708,4.45691 0,3.5112 4.75083,10.25017 10.26297,14.55784 7.49257,5.85535 5.66064,6.07229 -12.27838,1.45405 -15.87498,-4.08688 -17.48423,-4.29476 -17.48423,-2.25853 0,2.68873 16.35671,15.26637 24.89133,19.14042 8.48235,3.85032 12.98404,2.38983 24.44188,-7.92974 4.21816,-3.79912 10.35303,-8.09166 14.01088,-9.80338 5.71836,-2.67594 6.86575,-2.89644 9.46642,-1.81921 4.01906,1.66475 5.59007,5.91778 4.91913,13.31703 -0.79275,8.74256 -5.37083,16.60683 -15.18793,26.08993 -7.23063,6.98463 -8.14798,8.28918 -8.14798,11.58709 0,3.08611 0.82698,4.51816 4.87661,8.44463 2.68214,2.60056 7.87776,7.04895 11.54584,9.88532 8.32806,6.43973 8.58323,8.3509 1.53774,11.51739 -13.65953,6.13905 -17.11765,8.89915 -18.51072,14.77435 -1.55297,6.54963 10.18388,12.78222 16.40036,8.70903 5.87956,-3.85244 9.50969,-0.76235 7.8391,6.6729 -2.74229,12.20504 -11.92776,15.26423 -22.97887,7.65304 -8.83934,-6.08788 -15.50803,-7.06199 -28.35002,-4.14114 -9.85988,2.24258 -24.08846,9.50781 -24.51598,12.51808 -0.24946,1.75648 0.1804,2.30916 1.79602,2.30916 3.24121,0 2.56091,1.96452 -2.20345,6.36295 -8.60215,7.94146 -26.68132,14.87984 -28.99931,11.12928 -1.85299,-2.99823 8.5419,-17.7155 18.72636,-26.5131 10.00326,-8.64108 17.36776,-13.22031 26.15881,-16.2655 10.27755,-3.5601 18.21623,-10.42636 20.32709,-17.58116 2.68009,-9.08418 -1.98446,-19.29357 -5.23242,-11.4523 -2.82031,6.80883 -11.6835,8.84466 -24.25292,5.57074 -12.46287,-3.24617 -12.53526,-1.71527 -0.34759,7.35188 5.08016,3.77944 9.23667,7.4238 9.23667,8.09858 0,1.43555 -4.60812,2.50973 -10.76651,2.50973 -5.88974,0 -17.42152,5.86744 -23.78316,12.10102 -2.72952,2.67457 -7.58641,7.90572 -10.79311,11.6248 -3.20669,3.71908 -7.49329,7.55108 -9.52578,8.51556 -3.55951,1.6891 -3.82162,1.67561 -7.12596,-0.36658 -4.77379,-2.95036 -6.24047,-1.13744 -5.28254,6.5296 1.46906,11.7579 -5.68113,17.76671 -31.23343,26.24765 -21.13688,7.01543 -29.7766,12.67464 -29.7766,19.50428 0,6.21484 11.76287,14.85838 16.98346,12.47972 1.42815,-0.65071 2.70246,-2.3188 3.03883,-3.97786 1.6591,-8.18327 1.46977,-8.02178 8.96182,-7.6449 6.07373,0.30554 7.51781,-0.0202 12.96949,-2.92596 3.37411,-1.79839 8.53891,-5.32194 11.47733,-7.83014 9.04244,-7.71848 16.66019,-13.30787 21.47816,-15.75921 3.91724,-1.99305 5.18944,-2.18912 8.48917,-1.30837 5.00169,1.33502 11.00282,0.2002 21.74034,-4.11114 18.11406,-7.27317 34.52742,-18.8893 35.81964,-25.35041 0.60469,-3.02347 5.62313,-7.18949 8.67115,-7.19829 2.24331,-0.006 6.13466,4.65106 7.39011,8.84517 0.6552,2.18884 1.62515,10.83758 2.15543,19.21943 1.36643,21.59826 2.76357,23.26775 10.76736,12.86622 4.18008,-5.43232 4.9644,-6.03217 5.84043,-4.46678 1.21604,2.17293 0.2901,16.6369 -1.90313,29.72827 -4.7863,28.56956 -12.68397,42.59131 -23.98931,42.59131 -5.39312,0 -3.52048,-5.38378 5.23584,-15.05281 2.85456,-3.15211 6.29205,-8.09769 7.63886,-10.99018 2.83151,-6.08113 3.30129,-14.06664 0.94267,-16.02411 -4.25957,-3.53513 -11.32512,3.32043 -20.20353,19.60302 -11.6984,21.45434 -19.15153,31.05985 -25.75662,33.19483 -5.22791,1.68984 -7.93375,8.09086 -7.93375,18.76837 0,6.73478 0.33324,8.66616 1.57767,9.14369 2.0018,0.76816 4.17329,-1.19335 13.05909,-11.79631 10.72677,-12.79972 17.0248,-15.67947 14.28393,-6.5313 -4.21712,14.07551 -31.79414,42.03627 -49.95978,50.65497 -7.06199,3.35059 -10.61926,3.53207 -16.46063,0.83978 z"
     id="path8539"
     transform="translate(311.277,385.9)" />
</svg>
