<?xml version="1.0" encoding="UTF-8" standalone="no"?>
<svg
   viewBox="301.15 2868.9 737.4 603.2"
   version="1.1"
   id="svg5569"
   xmlns="http://www.w3.org/2000/svg">
  <defs
     id="defs5573" />
  <path
     d="m 972,2919.9966 c -55,64 -84,84 -125,83 -23,0 -39,-9 -57,-31 l -26,-30 -44,79 c -25,44 -48,80 -51,80 -3,0 -14,-17 -23,-39 -10,-21 -31,-58 -46,-81 -26,-39 -28,-41 -35,-20 -4,12 -22,28 -40,36 -48,20 -79,5 -142,-64 -28,-31 -54,-54 -57,-51 -4,3 -12,43 -18,87 -9,64 -9,100 0,168 12,79 54,228 86,304 l 13,31 36,-60 c 40,-64 89,-111 115,-111 9,0 31,-16 47,-35 47,-54 76,-55 126,-6 23,23 48,41 55,41 24,0 85,62 116,118 22,38 33,50 39,40 13,-21 67,-186 84,-258 17,-76 18,-214 2,-284 l -12,-48 z m -384,238 c 17,20 32,40 32,44 0,11 -89,39 -122,39 -64,0 -98,-46 -98,-134 v -55 l 78,35 c 48,21 89,48 110,71 z m 356,-25 c -5,39 -15,60 -36,82 -26,26 -34,28 -77,23 -56,-7 -101,-25 -101,-42 0,-23 70,-83 117,-101 26,-10 57,-24 68,-31 28,-19 37,4 29,69 z"
     stroke="#ff0000"
     stroke-width="0.1"
     fill="#000000"
     id="path5567" />
</svg>
