<?xml version="1.0" encoding="UTF-8" standalone="no"?>
<svg
   viewBox="3262.56 2760.68 982 898.3"
   version="1.1"
   id="svg5533"
   xmlns="http://www.w3.org/2000/svg">
  <defs
     id="defs5537" />
  <path
     d="m 3265,2781.6844 c -5,14 -2,25 6,30 8,5 10,9 5,9 -5,0 -1,9 9,20 10,11 22,17 28,13 5,-3 7,-2 4,4 -3,5 14,32 39,59 25,27 44,42 42,34 -2,-8 0,-16 5,-18 4,-1 7,1 8,5 0,5 5,14 11,21 8,9 7,11 -6,6 -26,-10 -18,12 14,39 27,23 28,26 13,39 -9,7 -14,8 -10,2 8,-14 -26,-47 -38,-37 -4,5 -5,2 -1,-5 4,-6 2,-12 -4,-12 -6,0 -9,-4 -6,-8 6,-10 -35,-48 -47,-44 -5,1 -6,-1 -3,-6 7,-12 -52,-68 -61,-57 -5,4 -2,10 5,12 6,3 9,9 6,15 -3,5 6,21 20,36 41,44 110,123 119,137 5,9 1,12 -10,11 -10,-2 -18,-8 -18,-14 0,-13 -13,-27 -26,-27 -5,0 -10,-5 -11,-10 -3,-17 -27,-37 -37,-30 -5,3 -13,0 -17,-6 -4,-8 -3,-9 4,-5 16,10 15,-5 -2,-27 -10,-13 -15,-15 -19,-5 -10,28 60,117 82,104 6,-4 8,2 6,14 -2,11 2,23 8,27 7,5 18,15 25,24 10,14 10,18 -3,23 -9,3 -13,2 -10,-4 3,-6 3,-10 -2,-10 -4,0 -16,-14 -25,-31 -11,-18 -22,-27 -29,-23 -7,4 -9,3 -6,-3 4,-6 -1,-18 -11,-26 -16,-15 -18,-15 -19,5 -2,28 14,58 30,55 7,-1 11,3 10,10 -3,16 47,54 61,46 7,-4 6,-1 -1,9 -7,8 -9,19 -5,23 4,5 1,4 -7,0 -11,-6 -13,-4 -8,9 4,10 7,20 7,22 0,3 9,0 19,-5 16,-9 22,-6 36,17 16,27 16,27 -3,5 -12,-13 -23,-18 -32,-13 -16,10 -37,3 -37,-13 -1,-35 -22,-69 -37,-59 -5,3 -6,0 -2,-6 3,-6 2,-13 -4,-17 -6,-4 -10,4 -10,19 0,14 5,28 12,32 7,5 8,3 3,-6 -5,-8 -4,-11 3,-6 6,4 9,12 6,19 -2,7 7,24 21,37 14,13 25,31 25,41 0,10 5,21 10,24 6,3 10,15 10,26 0,11 4,17 10,14 5,-3 7,0 4,8 -10,26 16,29 46,5 16,-13 40,-31 54,-41 l 26,-18 -32,-27 c -18,-15 -35,-26 -38,-25 -13,4 -7,-33 9,-51 9,-11 11,-17 5,-13 -6,3 -11,0 -11,-8 0,-8 5,-11 11,-8 6,4 26,6 44,5 19,-2 51,3 71,9 20,7 46,12 58,11 12,-1 25,3 29,10 4,7 3,8 -4,4 -7,-4 -12,-3 -12,2 0,8 42,32 55,32 3,0 5,-7 5,-15 0,-17 -96,-69 -110,-60 -6,4 -10,2 -10,-4 0,-14 -76,-24 -98,-12 -18,10 -18,8 0,-76 10,-48 17,-92 16,-97 -1,-6 2,-24 7,-40 l 8,-28 23,50 c 27,58 53,92 71,92 7,0 31,-18 53,-39 31,-30 40,-45 35,-59 -3,-12 -1,-24 6,-28 8,-4 9,-3 5,4 -8,13 0,25 55,83 37,40 89,54 89,25 0,-7 7,-19 16,-26 8,-8 22,-30 31,-49 l 17,-36 3,30 c 2,16 11,62 19,102 7,40 14,74 14,76 0,3 -24,7 -52,9 -102,9 -220,90 -176,120 10,7 10,11 1,14 -13,6 -6,34 9,34 5,0 7,-4 3,-9 -3,-5 -1,-12 4,-16 6,-3 8,3 6,14 -3,19 53,84 71,80 20,-3 34,2 34,12 0,8 -6,7 -17,-2 -10,-7 -7,-1 6,14 14,15 25,27 26,27 0,0 2,-11 3,-25 1,-15 -6,-30 -20,-40 -13,-8 -17,-15 -11,-15 6,0 18,7 26,15 8,8 18,11 22,7 5,-4 5,-2 1,5 -3,6 -2,14 4,18 5,3 10,12 10,18 0,8 -3,8 -9,-2 -5,-8 -11,-9 -15,-3 -3,5 12,32 34,58 22,27 40,54 40,60 0,6 7,17 15,24 8,7 15,18 15,24 0,6 -5,4 -11,-4 -9,-13 -10,-12 -5,2 4,12 -8,31 -37,60 -23,22 -31,33 -18,22 78,-60 112,-127 115,-225 0,-27 4,-49 8,-49 4,0 16,-25 27,-54 11,-30 36,-76 56,-101 19,-26 35,-52 35,-59 0,-27 -15,-25 -49,6 -20,19 -13,8 17,-26 30,-35 52,-70 52,-83 0,-13 -2,-23 -4,-23 -2,0 -30,26 -61,57 l -57,58 66,-79 c 45,-54 66,-88 66,-105 -1,-23 -8,-19 -70,47 -39,41 -70,71 -70,67 0,-4 34,-45 75,-91 55,-61 75,-92 75,-112 0,-25 -7,-20 -83,59 -91,95 -85,84 15,-31 36,-41 70,-85 77,-97 10,-21 6,-54 -8,-52 -3,0 -47,47 -98,104 l -91,103 -28,-44 c -20,-31 -44,-52 -80,-70 -45,-22 -63,-25 -167,-25 -65,0 -134,5 -155,10 -52,15 -105,49 -96,63 4,7 3,8 -4,4 -7,-4 -19,8 -30,30 l -18,36 -83,-94 c -46,-51 -89,-92 -97,-92 -7,1 -10,-5 -7,-12 3,-8 3,-14 0,-14 -3,0 -9,10 -12,21 z m 113,114 c -3,3 -9,-2 -12,-12 -6,-14 -5,-15 5,-6 7,7 10,15 7,18 z m 211,-12 c 14,-4 14,-3 1,6 -12,9 -13,11 -1,11 8,0 12,2 9,5 -9,9 -36,-6 -43,-23 -5,-13 -3,-14 6,-5 6,6 19,9 28,6 z m 48,3 c -3,3 -12,4 -19,1 -8,-3 -5,-6 6,-6 11,-1 17,2 13,5 z m -322,42 c -3,3 -11,0 -18,-7 -9,-10 -8,-11 6,-5 10,3 15,9 12,12 z m 389,8 c 3,8 2,12 -4,9 -6,-3 -10,-10 -10,-16 0,-14 7,-11 14,7 z m -194,29 c 0,2 -10,9 -22,15 -22,11 -22,10 -4,-4 21,-17 26,-19 26,-11 z m 194,11 c 3,8 2,12 -4,9 -6,-3 -10,-10 -10,-16 0,-14 7,-11 14,7 z m -234,187 c 0,5 -4,5 -10,2 -5,-3 -10,-14 -10,-23 0,-15 2,-15 10,-2 5,8 10,19 10,23 z m 545,33 c 31,20 21,43 -33,79 -62,40 -84,41 -158,5 l -66,-32 39,-20 c 105,-57 166,-66 218,-32 z m -560,4 c -3,5 -12,10 -18,10 -7,0 -6,-4 3,-10 19,-12 23,-12 15,0 z m -23,95 c 3,0 9,3 13,7 4,3 -1,5 -12,3 -10,-2 -21,-4 -25,-4 -5,-1 -8,-6 -8,-12 0,-6 5,-7 13,-2 6,4 15,8 19,8 z m 392,26 c -9,15 -20,10 -20,-10 0,-15 3,-17 13,-9 7,6 10,14 7,19 z m 31,18 c 3,5 0,13 -6,17 -8,5 -9,3 -4,-6 6,-10 4,-12 -9,-7 -10,4 -15,3 -11,-3 8,-13 22,-13 30,-1 z m 183,87 c -3,14 -5,12 -10,-9 -3,-19 -2,-25 4,-19 6,6 8,18 6,28 z m -68,25 c 7,11 9,23 6,27 -3,3 -6,0 -6,-6 0,-6 -7,-18 -16,-26 -8,-9 -11,-16 -5,-16 6,0 15,9 21,21 z m 60,34 c 0,5 -5,3 -10,-5 -5,-8 -10,-20 -10,-25 0,-6 5,-3 10,5 5,8 10,19 10,25 z m -13,47 c -3,8 -6,5 -6,-6 -1,-11 2,-17 5,-13 3,3 4,12 1,19 z"
     stroke="#ff0000"
     stroke-width="0.1"
     fill="#000000"
     id="path5531" />
  <path
     style="fill:#ff0000"
     d="m 3737.9872,3221.7495 c 2.6127,-0.024 5.2882,-0.3699 7.856,-0.8127 2.5995,-0.4481 5.2356,-1.2978 7.8561,-1.6254 0.8124,-0.1015 7.0849,0.2294 7.3143,0 0.064,-0.064 -0.064,-0.207 0,-0.2709 0.032,-0.032 2.67,0 2.9798,0 0.1116,0 0.741,-0.072 0.8127,0 0.064,0.064 -0.04,0.1902 0,0.2709 0.2954,0.5907 0.4244,0.5419 1.0836,0.5419 0.8127,-1e-4 1.6254,-1e-4 2.4381,-1e-4"
     id="path7046" />
  <path
     style="fill:#ff0000;stroke-width:0.270899"
     d="m 475.01505,459.01557 c -10.01034,-14.02823 -56.13884,-41.55366 -86.68181,-51.72407 -7.73431,-2.57543 -10.8075,-3.21686 -15.48935,-3.23294 l -3.84072,-0.0132 -2.5254,1.30116 c -5.50303,2.83532 -8.18548,1.63615 -8.85943,-3.96056 -0.31549,-2.6199 -1.02584,-3.78393 -3.35882,-5.50395 -7.81888,-5.76457 -27.53306,-10.47371 -50.31121,-12.01785 -5.12907,-0.3477 -18.47685,-0.34617 -22.91932,0.003 -6.80144,0.53402 -13.6953,1.77941 -17.56925,3.17393 -1.04889,0.37757 -3.99175,1.75519 -6.53968,3.06138 -6.21259,3.18478 -7.95412,3.5237 -9.50254,1.84921 -1.02163,-1.1048 -1.26368,-2.83742 -1.0863,-7.77591 0.2923,-8.13787 2.35929,-19.60175 10.22467,-56.70758 10.6756,-50.36339 17.27265,-87.66146 19.09748,-107.97225 l 0.17646,-1.96402 23.47297,0.003 23.47296,0.003 1.95979,3.85727 c 9.32197,18.34753 21.89135,38.1224 31.43866,49.46109 12.22175,14.51494 23.52517,21.33228 31.06732,18.7374 8.50436,-2.92593 27.0396,-16.8311 46.60269,-34.96144 5.35479,-4.96262 16.5455,-16.2282 20.97703,-21.11738 3.74685,-4.13378 9.16668,-10.8536 11.13214,-13.80226 l 1.4536,-2.18076 h 19.85208 19.85208 l 1.04157,1.15132 c 11.60355,12.82626 26.2428,28.53024 33.35259,35.77833 18.08419,18.436 40.68838,32.16151 59.48339,36.11899 3.10312,0.65339 4.13342,0.74329 8.66876,0.75639 4.11042,0.0119 5.5017,-0.0815 6.90791,-0.46376 5.45931,-1.48391 9.18412,-5.00239 10.42351,-9.84611 0.22444,-0.87715 0.52269,-2.99671 0.66278,-4.71015 0.42382,-5.18344 2.11761,-9.51238 5.94582,-15.1962 2.45856,-3.65025 5.11852,-6.73027 7.93532,-9.18851 4.19788,-3.66352 8.70362,-9.29555 14.70923,-18.38608 3.10342,-4.69755 8.77549,-13.95473 9.42844,-15.38776 l 0.28737,-0.63072 15.99115,0.0699 15.99115,0.0699 0.36105,2.03174 c 1.98764,11.1848 5.50071,29.53342 11.0476,57.70142 2.44993,12.44102 5.38094,27.80097 6.51341,34.13323 1.13243,6.33226 3.8256,20.83888 5.9848,32.23694 5.34179,28.19865 5.3726,28.37064 5.27502,29.45473 -0.0938,1.04245 -6.34981,2.89286 -14.85121,4.39274 -7.65633,1.35078 -20.13904,2.84068 -31.9088,3.80855 -13.84517,1.13854 -22.45701,2.35394 -34.6008,4.88325 -32.64606,6.79952 -67.82249,20.41442 -97.4623,37.72236 -17.20776,10.04835 -32.34218,21.44841 -42.45972,31.98295 -1.52519,1.58805 -2.88357,2.88736 -3.01863,2.88736 -0.13506,0 -0.30878,-0.16475 -0.38605,-0.3661 -0.10404,-0.27114 -0.58584,-0.33758 -1.85755,-0.25616 -0.94438,0.0605 -3.69472,0.16333 -6.11186,0.22858 -3.55673,0.096 -5.08069,0.27034 -7.99151,0.91411 -3.98518,0.88138 -7.22351,1.37586 -9.01051,1.37586 -1.139,0 -1.21534,-0.0556 -2.44803,-1.78307 z"
     id="path7117"
     transform="translate(3262.56,2760.68)" />
  <path
     style="fill:#ff0000;stroke-width:1.08359"
     d="m 469.78855,214.82264 c 4.81234,-11.0759 5.13786,-13.42637 3.23737,-23.37607 -2.69549,-14.11174 -0.73252,-22.52873 6.24643,-26.78405 5.67382,-3.45953 6.31691,-2.68849 3.28367,3.93699 -4.50997,9.85107 -1.89825,17.41851 11.89203,34.45703 4.28895,5.29919 8.46708,10.54108 9.28474,11.64865 1.4334,1.94159 0.83717,2.01375 -16.64075,2.01375 -16.85568,0 -18.06961,-0.13304 -17.30349,-1.8963 z"
     id="path7119"
     transform="translate(3262.56,2760.68)" />
  <path
     style="fill:#ff0000;stroke-width:1.08359"
     d="m 276.31664,210.71348 c 0,-3.303 0.75859,-9.76393 1.68576,-14.35763 1.68852,-8.36591 10.9731,-41.856 12.29726,-44.35705 0.38811,-0.73306 4.06844,6.07489 8.20096,15.17032 4.12329,9.0751 11.02476,23.93635 15.3366,33.025 l 7.83972,16.52482 h -22.68015 -22.68015 z"
     id="path7121"
     transform="translate(3262.56,2760.68)" />
  <path
     style="fill:#ff0000;stroke-width:1.08359"
     d="m 667.69352,215.90624 c 0.20889,-0.44698 4.39614,-9.1022 9.305,-19.23381 4.90886,-10.13161 10.07853,-20.85919 11.48815,-23.83908 l 2.56295,-5.41797 0.77329,8.12696 c 0.73055,7.67787 2.84196,24.65345 4.48132,36.02952 l 0.74172,5.14708 h -14.86611 c -8.17637,0 -14.69521,-0.36572 -14.48632,-0.8127 z"
     id="path7123"
     transform="translate(3262.56,2760.68)" />
  <path
     style="fill:#ff0000;stroke-width:1.08359"
     d="m 471.68455,454.56627 c -17.57736,-18.17755 -69.94176,-46.26639 -94.09198,-50.47197 -6.2904,-1.09543 -7.70152,-1.01132 -11.45883,0.68299 -4.90186,2.21044 -6.16178,1.56196 -8.09396,-4.16592 -1.52575,-4.52304 -6.4252,-7.74611 -16.71737,-10.99741 -12.4998,-3.94868 -28.99887,-6.02144 -47.93032,-6.02144 -19.44384,0 -25.15153,0.87751 -35.63452,5.47852 -4.19859,1.84277 -8.32324,3.08593 -9.16589,2.76257 -3.67938,-1.41191 -1.79131,-15.0386 9.77069,-70.51741 9.2133,-44.20889 14.11149,-71.69292 17.43427,-97.8248 l 0.72337,-5.68887 22.9247,0.0133 22.92471,0.0133 5.41797,10.48177 c 8.96392,17.34186 23.75545,38.80425 33.47083,48.56588 13.08487,13.14716 20.78977,16.00429 30.23353,11.21116 16.51763,-8.38344 52.96536,-40.36063 69.30454,-60.80392 l 7.578,-9.48145 h 19.13545 19.13545 l 11.7277,12.96178 c 38.72678,42.80192 65.703,60.72266 91.40625,60.72266 12.76387,0 16.25513,-2.98514 18.67082,-15.96422 1.54546,-8.30354 4.28367,-12.88485 14.1482,-23.67144 4.86281,-5.31734 12.30114,-15.1536 16.52963,-21.85834 l 7.68816,-12.19044 h 15.27914 15.27914 l 5.2181,27.36077 c 14.72261,77.19693 23.41574,124.04745 23.41591,126.19701 1.5e-4,1.86232 -0.9273,2.64607 -4.1619,3.51706 -8.06065,2.1705 -16.09131,3.36708 -37.0145,5.51516 -26.39402,2.70975 -32.01175,3.59058 -48.29792,7.5729 -47.02027,11.49746 -93.87982,34.53743 -124.25671,61.09474 -5.1692,4.51923 -10.2723,8.22425 -11.3402,8.23337 -1.28249,0.0109 -1.50702,0.29301 -0.66139,0.83077 0.70414,0.44781 -2.22157,0.80606 -6.50157,0.79611 -4.28002,-0.01 -9.73231,0.31838 -12.11622,0.72962 -4.18057,0.72115 -4.53447,0.54075 -9.97328,-5.08377 z"
     id="path7125"
     transform="translate(3262.56,2760.68)" />
  <path
     style="fill:#ff0000;stroke-width:1.08359"
     d="m 469.69371,453.09705 c -19.2712,-18.49131 -69.11778,-45.06478 -91.87539,-48.97925 -6.52544,-1.12241 -7.9058,-1.04451 -11.68458,0.65949 -4.90186,2.21044 -6.16178,1.56196 -8.09396,-4.16592 -1.48738,-4.40931 -6.53293,-7.83358 -15.56044,-10.56043 -14.85562,-4.48731 -22.29014,-5.54583 -43.13991,-6.14221 -23.47964,-0.67161 -30.10735,0.16488 -41.80809,5.27663 -4.07416,1.7799 -8.16405,2.94588 -9.08864,2.59109 -2.92481,-1.12236 -1.03495,-17.07273 6.1694,-52.06952 12.37553,-60.11707 21.67143,-111.75823 21.70012,-120.54991 0.003,-1.04106 5.34545,-1.35449 23.08578,-1.35449 h 23.08137 l 2.48436,5.14707 c 9.42922,19.53535 29.2127,48.10519 39.9181,57.64676 11.30929,10.0798 18.03998,11.83069 27.34774,7.11409 16.49445,-8.35837 53.92347,-41.7128 70.55039,-62.87015 l 5.53076,-7.03777 h 19.21013 19.21013 l 12.15156,13.41654 c 38.10612,42.07298 65.37348,60.2679 90.31895,60.2679 12.93759,0 16.87332,-3.17077 19.13729,-15.41769 1.59209,-8.61244 4.22774,-13.22772 13.18653,-23.09095 8.21012,-9.03897 14.28579,-17.22616 21.07795,-28.40333 l 4.1155,-6.77247 h 15.32401 15.324 l 5.22914,27.36077 c 15.37231,80.43373 23.41252,123.70494 23.41252,126.00256 0,2.0458 -0.83189,2.80782 -4.06348,3.72219 -6.51318,1.84292 -22.20778,4.11488 -41.44749,5.99999 -33.94698,3.32611 -66.37214,11.7184 -98.03611,25.37371 -26.37342,11.37373 -52.47549,27.30059 -70.09903,42.77278 -5.16368,4.53333 -10.28367,8.24989 -11.37774,8.25901 -1.30384,0.0108 -1.54811,0.29713 -0.70896,0.83077 0.70414,0.44781 -2.22157,0.80606 -6.50157,0.79611 -4.28002,-0.01 -9.73231,0.32295 -12.11622,0.73977 -4.23278,0.74007 -4.51322,0.58623 -11.96412,-6.56314 z"
     id="path7127"
     transform="translate(3262.56,2760.68)" />
  <path
     style="fill:#ff0000;stroke-width:1.08359"
     d="M 469.66194,453.06676 C 449.23732,433.4692 398.53889,407.04175 374.79558,403.616 c -3.67576,-0.53035 -5.93124,-0.24273 -8.49565,1.08338 -4.52754,2.34128 -6.14735,1.60644 -8.296,-3.76355 -1.23098,-3.07653 -3.10779,-5.18775 -6.23638,-7.01532 -10.30188,-6.01787 -34.50907,-10.31202 -58.18528,-10.3216 -18.44281,-0.008 -25.89838,1.14754 -36.05093,5.58497 -4.07416,1.78071 -8.16794,2.94588 -9.09729,2.58924 -3.04158,-1.16716 -0.90699,-18.14015 7.29756,-58.02596 12.03815,-58.52261 20.58503,-106.20926 20.58503,-114.85263 0,-0.69941 8.29453,-1.092 23.07156,-1.092 h 23.07155 l 2.96693,6.04945 c 13.53823,27.60392 36.96446,57.8415 49.67108,64.11331 6.31689,3.11792 10.55425,3.07908 16.92863,-0.15518 15.88013,-8.05732 53.35643,-41.31235 70.04084,-62.15152 l 6.28978,-7.85606 h 19.17577 19.17577 l 8.05249,8.93966 c 42.66816,47.36897 70.13933,65.77252 96.39927,64.58 7.96328,-0.36164 8.88866,-0.65151 11.9943,-3.75716 2.5283,-2.52829 3.74119,-5.15856 4.87667,-10.57545 2.04075,-9.73563 4.82829,-14.81602 12.78587,-23.30275 8.00617,-8.53856 14.01126,-16.53932 20.77186,-27.67493 l 4.98403,-8.20937 h 15.40947 15.40948 l 5.76391,30.06975 c 13.17347,68.7247 22.85253,120.96754 22.85253,123.34669 0,2.02618 -0.83889,2.76356 -4.16209,3.6584 -7.91265,2.13065 -15.63948,3.2902 -36.84935,5.52989 -24.46433,2.58335 -35.3424,4.34693 -50.50195,8.18754 -47.25359,11.97147 -91.6739,34.04718 -122.70172,60.97953 -4.88066,4.23644 -9.75684,7.71009 -10.83595,7.71921 -1.29162,0.0109 -1.52457,0.2948 -0.68175,0.83077 0.70414,0.44781 -2.22157,0.80606 -6.50157,0.79611 -4.28002,-0.01 -9.73231,0.32295 -12.11622,0.73977 -4.23399,0.74029 -4.51181,0.58759 -11.99589,-6.59343 z"
     id="path7129"
     transform="translate(3262.56,2760.68)" />
  <path
     style="fill:#ff0000;stroke-width:1.08359"
     d="m 476.99775,216.99652 c 5.18465,-0.1982 13.96177,-0.19913 19.5047,-0.002 5.54293,0.19706 1.30094,0.35923 -9.42664,0.36036 -10.72759,0.001 -15.26272,-0.16009 -10.07806,-0.35829 z"
     id="path7131"
     transform="translate(3262.56,2760.68)" />
  <path
     style="fill:#ff0000;stroke-width:0.135449"
     d="m 467.43565,217.4624 c 0,-0.0381 0.44929,-0.81522 0.99841,-1.72698 1.84261,-3.05943 3.40505,-6.44116 4.27379,-9.25008 0.72978,-2.35966 0.98382,-3.95335 1.0784,-6.7653 l 0.0866,-2.57353 0.10842,1.55766 c 0.26927,3.86854 -0.52946,7.20764 -3.31339,13.85171 -0.58575,1.39792 -1.065,2.68371 -1.065,2.8573 0,1.05481 1.94431,1.29169 10.90368,1.32842 l 5.68887,0.0233 -5.5955,0.0936 c -3.35944,0.0562 -5.6488,0.14688 -5.72887,0.22695 -0.24023,0.24023 2.51755,0.31075 12.12427,0.31003 9.67011,-6.7e-4 12.22062,-0.0683 11.78492,-0.3121 -0.14165,-0.0793 -2.6161,-0.17255 -6.00651,-0.22642 l -5.76562,-0.0916 6.38031,-0.0232 c 9.77811,-0.0356 11.32484,-0.24673 10.76747,-1.47003 -0.22128,-0.48566 -0.71432,-1.11776 -7.09826,-9.10046 -3.11998,-3.90133 -6.20898,-7.81237 -6.86445,-8.6912 -6.71865,-9.00812 -9.3908,-14.65247 -9.55235,-20.17727 l -0.0495,-1.69312 0.1175,1.5685 c 0.43776,5.8435 3.70717,12.25013 11.36504,22.27059 3.40769,4.45902 9.78731,12.09439 13.99171,16.7458 0.58122,0.64302 1.05677,1.20682 1.05677,1.2529 0,0.0461 -8.9295,0.0838 -19.84333,0.0838 -10.91383,0 -19.84333,-0.0311 -19.84333,-0.0692 z"
     id="path7133"
     transform="translate(3262.56,2760.68)" />
  <path
     style="fill:#ff0000;stroke-width:0.135449"
     d="m 681.46837,217.5655 c -8.5174,-0.0193 -15.46595,-0.0816 -15.44122,-0.13857 0.0247,-0.057 0.60177,-1.10813 1.28233,-2.33593 3.56817,-6.43741 5.60118,-10.53604 12.98237,-26.17304 4.62437,-9.79668 5.9837,-12.56293 6.17343,-12.56293 0.29002,0 1.11494,-1.75307 -9.5605,20.3174 -4.37815,9.05141 -8.26321,17.08693 -8.63347,17.85672 -0.37645,0.78266 -0.62144,1.45011 -0.55578,1.51417 0.18927,0.18465 2.09116,0.39221 4.92587,0.53758 1.45269,0.0745 7.55257,0.13603 13.55527,0.13674 l 10.91401,0.001 -0.58793,-4.09735 c -1.59356,-11.10553 -4.5121,-34.39063 -4.5121,-35.99906 0,-0.36901 0.38628,-0.33814 0.46559,0.0372 0.0354,0.16761 0.46652,4.38855 0.95802,9.37986 1.09303,11.10027 1.68654,15.33979 3.92422,28.03171 0.33657,1.90897 0.61194,3.49894 0.61194,3.53328 0,0.0343 -0.22857,0.0474 -0.50793,0.0292 -0.27937,-0.0183 -7.47672,-0.049 -15.99412,-0.0683 z"
     id="path7135"
     transform="translate(3262.56,2760.68)" />
  <path
     style="fill:#ff2a2a;stroke-width:0.135449"
     d="m 275.59981,216.85439 c -0.0522,-0.70773 -0.13312,-2.04961 -0.1799,-2.98196 -0.30263,-6.03064 2.01235,-19.5761 5.52644,-32.33646 0.78935,-2.86629 0.84596,-3.01375 1.15687,-3.01375 0.24811,0 0.30977,0.0571 0.25581,0.23704 -0.21154,0.70541 -1.9773,7.4527 -2.78414,10.63869 -1.68103,6.63797 -2.42642,10.66131 -2.98452,16.10946 -0.21237,2.07307 -0.27373,3.62915 -0.27373,6.94178 v 4.26975 h 22.68777 c 12.47827,0 22.68776,-0.0315 22.68776,-0.07 0,-0.0385 -2.20192,-4.71659 -4.89315,-10.39574 -4.55635,-9.61499 -12.15787,-25.83313 -12.7322,-27.16462 -0.2511,-0.58214 -0.25098,-0.58476 0.0251,-0.5418 0.22475,0.035 1.17039,1.98344 4.98417,10.2696 5.96411,12.9582 7.11786,15.39785 10.69734,22.62004 1.60613,3.24063 2.9438,5.93776 2.97259,5.99363 0.0288,0.0559 -10.52369,0.10159 -23.44997,0.10159 h -23.50232 l -0.0495,0.30476 c -0.0272,0.16762 -0.0922,-0.27428 -0.14436,-0.982 z"
     id="path7137"
     transform="translate(3262.56,2760.68)" />
  <path
     style="fill:#ff2a2a;stroke-width:1.08359"
     d="m 470.09594,453.51949 c -20.04347,-19.12236 -70.05889,-45.63981 -93.26014,-49.44518 -4.92235,-0.80734 -7.05138,-0.66985 -10.23686,0.66114 -5.18277,2.1655 -6.24031,1.66786 -8.81243,-4.14685 -1.7742,-4.01087 -3.12187,-5.27605 -8.15765,-7.65836 -12.44425,-5.88707 -33.6283,-9.31373 -57.67198,-9.32884 -16.7528,-0.0108 -23.8584,1.14091 -34.20094,5.54205 -4.21829,1.79505 -8.41767,2.97665 -9.33196,2.62581 -3.17319,-1.21766 -0.87274,-17.76892 9.87178,-71.02524 9.17394,-45.4716 15.29017,-79.43371 17.5142,-97.25262 l 0.71005,-5.68887 22.9247,0.0128 22.92471,0.0128 4.87617,9.3865 c 5.54031,10.66493 17.24757,28.99466 24.74059,38.73564 11.2575,14.63482 23.88919,24.45302 31.46028,24.45302 11.51137,0 55.77233,-36.53704 78.82618,-65.07033 l 6.08437,-7.53051 h 19.1482 19.14822 l 15.96446,17.3212 c 36.02564,39.08731 62.74895,56.36324 87.18559,56.36324 11.45255,0 15.54797,-3.28419 18.16448,-14.56639 2.37201,-10.22788 4.75802,-14.44728 13.67275,-24.17868 4.2279,-4.61521 11.63676,-14.36462 16.46414,-21.66533 l 8.77707,-13.27404 h 15.26313 15.26313 l 6.29103,32.77874 c 12.69993,66.17164 22.30922,118.1205 22.30922,120.60602 0,2.02103 -0.84418,2.78987 -4.06348,3.70076 -6.38873,1.8077 -22.08379,4.13886 -40.3639,5.99519 -21.9806,2.2321 -33.19573,4.16258 -50.70702,8.72831 -43.88217,11.44139 -86.17761,32.53141 -117.00609,58.34342 -6.12353,5.12709 -11.63801,9.32198 -12.25439,9.32198 -0.61639,0 -0.89469,0.36572 -0.61844,0.8127 0.27625,0.44698 -2.98638,0.82563 -7.25031,0.84143 -4.26392,0.0158 -9.70306,0.35613 -12.08697,0.75627 -4.1996,0.70488 -4.55911,0.51309 -11.56189,-6.16786 z"
     id="path7362"
     transform="translate(3262.56,2760.68)" />
  <path
     style="fill:#ff2a2a;stroke-width:1.08359"
     d="m 276.81181,209.94647 c 0.38938,-3.72486 1.2028,-9.45436 1.80761,-12.73224 1.149,-6.22718 10.52289,-41.06018 11.46694,-42.61067 0.92796,-1.52407 3.07275,2.46836 13.90771,25.88858 5.77135,12.47502 11.87381,25.4177 13.56102,28.7615 l 3.06765,6.07964 -7.25362,0.68512 c -3.98949,0.37682 -14.00624,0.6886 -22.25945,0.69283 l -15.00582,0.008 z"
     id="path7364"
     transform="translate(3262.56,2760.68)" />
  <path
     style="fill:#ff2a2a;stroke-width:1.08359"
     d="m 475.3576,215.99166 c -3.48117,-0.32081 -5.03811,-0.91066 -4.68,-1.77302 3.83633,-9.23843 4.34558,-12.84599 3.06432,-21.70765 -2.33403,-16.14297 -1.11124,-22.22207 5.40291,-26.86056 4.12595,-2.93793 4.81897,-2.05686 2.64865,3.36731 -3.91095,9.77443 -1.30948,17.05271 12.34853,34.54815 4.82083,6.17531 8.58409,11.40888 8.36282,11.63016 -0.68778,0.68778 -21.65076,1.30215 -27.14723,0.79561 z"
     id="path7366"
     transform="translate(3262.56,2760.68)" />
  <path
     style="fill:#aa0000;stroke-width:1.08359"
     d="m 674.93299,215.72408 -6.10627,-0.63054 10.62659,-22.03843 c 5.84463,-12.12115 10.90863,-22.32048 11.25334,-22.66519 0.34472,-0.34472 0.62675,1.12741 0.62675,3.27139 0,3.96331 3.88718,36.16701 4.90302,40.61954 0.54022,2.36784 0.32932,2.43284 -7.32046,2.25592 -4.33219,-0.10018 -10.62452,-0.4659 -13.98297,-0.81269 z"
     id="path7368"
     transform="translate(3262.56,2760.68)" />
  <path
     style="fill:#aa0000;stroke-width:1.08359"
     d="m 469.1965,452.23493 c -23.54061,-21.11982 -77.14272,-48.37418 -95.35634,-48.48458 -3.27787,-0.0198 -7.48134,0.36097 -9.34104,0.84633 -3.19518,0.8339 -3.52316,0.62311 -5.95977,-3.83019 -3.35278,-6.12776 -12.55258,-10.85142 -27.50118,-14.12053 -9.31817,-2.03781 -14.32683,-2.37968 -35.75862,-2.44069 l -24.92268,-0.071 -10.52092,3.74641 c -5.78651,2.06054 -10.86002,3.40733 -11.27446,2.99289 -1.16535,-1.16535 -0.54323,-12.2125 1.29485,-22.9932 0.91452,-5.36379 5.73832,-30.71991 10.71955,-56.34692 8.49849,-43.72224 13.4563,-71.55497 15.44157,-86.68757 l 0.85295,-6.50157 22.40808,-0.29267 22.40808,-0.29267 3.99733,7.60693 c 2.19853,4.18382 4.34327,7.60694 4.7661,7.60694 0.42283,0 0.76877,0.66367 0.76877,1.47482 0,2.57956 20.421,32.3711 27.35466,39.90683 8.90459,9.67781 18.47262,16.04886 24.10214,16.04886 6.76738,0 15.25709,-4.91961 33.42479,-19.36899 12.84919,-10.21938 38.67841,-35.46186 46.59457,-45.53609 l 5.95977,-7.58451 18.27585,-0.0556 18.27584,-0.0556 23.44256,23.69714 c 24.15752,24.41988 31.28334,30.51299 46.09656,39.416 15.14487,9.10233 34.22665,13.10557 44.83745,9.40663 4.33223,-1.51023 5.83394,-3.9439 9.3185,-15.10158 3.01064,-9.64015 3.74737,-10.81692 17.03354,-27.20714 4.53175,-5.5905 11.20859,-14.6148 14.83742,-20.054 l 6.59787,-9.88946 12.43418,-0.77691 c 13.41386,-0.83813 16.53247,-0.39668 17.38566,2.46104 0.30227,1.01247 2.78698,13.78749 5.52156,28.38893 2.73458,14.60144 5.27152,27.2795 5.63763,28.17346 0.36611,0.89397 0.59119,1.9823 0.50015,2.41851 -0.091,0.43621 2.97152,17.50282 6.80565,37.92581 9.21088,49.06296 10.14303,54.68257 9.29738,56.05083 -0.96648,1.56382 -12.76156,3.94856 -29.82651,6.03037 -7.74771,0.94518 -19.93815,2.44028 -27.08987,3.32245 -34.53618,4.26009 -70.34066,15.55854 -104.02509,32.82611 -19.1523,9.81799 -33.09322,18.87302 -50.92895,33.0798 -12.84749,10.23348 -13.07447,10.35777 -18.96291,10.38316 -3.27787,0.0141 -8.39786,0.28373 -11.37774,0.59909 l -5.41797,0.57338 z"
     id="path7439"
     transform="translate(3262.56,2760.68)" />
  <path
     style="fill:#aa0000;stroke-width:1.08359"
     d="m 276.76672,213.27313 c 1.70826,-10.65555 3.08353,-20.10377 3.20502,-22.01867 0.0756,-1.19195 0.41262,-2.411 0.74889,-2.70899 0.7463,-0.66133 8.10165,-28.26793 7.94717,-29.82785 -0.0606,-0.61193 0.47365,-1.65798 1.18723,-2.32457 0.9871,-0.92209 2.42742,1.09344 6.02196,8.42687 2.5985,5.30135 5.14064,9.63882 5.64919,9.63882 0.50855,0 0.68821,0.38255 0.39925,0.8501 -0.28896,0.46755 3.52217,9.36657 8.46919,19.7756 4.94701,10.40903 8.68989,19.23271 8.31749,19.60819 -0.37239,0.37547 -10.09221,1.01914 -21.5996,1.43036 l -20.92254,0.74769 z"
     id="path7441"
     transform="translate(3262.56,2760.68)" />
  <path
     style="fill:#aa0000;stroke-width:1.08359"
     d="m 472.34548,214.97547 c -0.61703,-0.74632 -0.37199,-2.96322 0.64665,-5.85035 1.30008,-3.68481 1.50999,-7.81676 1.01241,-19.92842 -0.57832,-14.07684 -0.45563,-15.55156 1.5585,-18.73228 1.20244,-1.89889 3.25892,-4.0266 4.56996,-4.72825 2.20898,-1.18221 2.32321,-1.088 1.55836,1.28534 -0.45394,1.40858 -0.98102,5.35077 -1.17129,8.76041 -0.2869,5.14109 0.20691,7.30572 2.89272,12.68051 1.78127,3.56463 4.62692,7.96728 6.32368,9.78366 1.69676,1.81639 2.86087,3.30252 2.58693,3.30252 -0.27395,0 1.74259,2.91192 4.48119,6.47094 4.81673,6.25969 4.89839,6.48915 2.50142,7.02868 -5.2546,1.18276 -25.96873,1.12685 -26.96053,-0.0728 z"
     id="path7443"
     transform="translate(3262.56,2760.68)" />
  <path
     style="fill:#aa0000;stroke-width:1.08359"
     d=""
     id="path7461"
     transform="translate(3262.56,2760.68)" />
  <path
     style="fill:#aa0000;stroke-width:1.08359"
     d="m 474.24303,214.86903 c -1.508,-0.38886 -1.80393,-1.08758 -1.20885,-2.85419 0.43338,-1.2866 1.08815,-10.98515 1.45503,-21.55235 0.64864,-18.6827 0.74256,-19.28847 3.40227,-21.94438 l 2.73521,-2.73132 -0.0262,9.48305 c -0.0244,8.82692 0.22136,9.89541 3.55209,15.44282 1.96806,3.27788 6.44895,9.86071 9.95753,14.62853 l 6.37922,8.66876 -3.99776,0.75025 c -4.45401,0.83587 -19.15028,0.90776 -22.24851,0.10883 z"
     id="path7463"
     transform="translate(3262.56,2760.68)" />
  <path
     style="fill:#aa0000;stroke-width:1.08359"
     d="m 474.24303,214.86903 c -1.49884,-0.3865 -1.806,-1.09831 -1.23164,-2.85419 0.42086,-1.2866 1.07563,-10.98505 1.45504,-21.55212 0.68694,-19.13223 0.70238,-19.22539 3.67991,-22.19926 l 2.99008,-2.9864 -0.70267,6.72282 c -1.05003,10.04608 0.84788,15.06319 11.13559,29.43693 l 8.99896,12.57314 -2.95366,0.68449 c -3.44948,0.79939 -20.45597,0.92643 -23.37161,0.17459 z"
     id="path7465"
     transform="translate(3262.56,2760.68)" />
  <path
     style="fill:#aa0000;stroke-width:0.135449"
     d=""
     id="path7467"
     transform="translate(3262.56,2760.68)" />
  <path
     style="fill:#aa0000;stroke-width:0.135449"
     d=""
     id="path7469"
     transform="translate(3262.56,2760.68)" />
  <path
     style="fill:#aa0000;stroke-width:0.135449"
     d="m 493.17103,215.76 c 4.08702,-0.23805 6.80574,-0.64373 7.38907,-1.10258 0.74878,-0.58898 0.42041,-1.22004 -2.97662,-5.72048 -3.76555,-4.98865 -5.37108,-7.28754 -5.20534,-7.45328 0.0609,-0.0609 1.96485,2.39414 5.4906,7.07992 2.48538,3.30311 4.51284,6.22179 4.51284,6.49657 0,0.081 -0.16762,0.18173 -0.37248,0.22379 -1.1265,0.23128 -7.52792,0.63651 -9.51532,0.60236 -1.00904,-0.0173 -0.92534,-0.0329 0.67725,-0.1263 z"
     id="path7471"
     transform="translate(3262.56,2760.68)" />
  <path
     style="fill:#aa0000;stroke-width:0.135449"
     d="m 478.5425,216.58276 c -7.33908,-0.11241 -8.80421,-0.29945 -8.80421,-1.12398 0,-0.16778 0.33762,-1.09574 0.75027,-2.06213 1.10573,-2.58953 2.14706,-5.34303 2.68788,-7.10731 0.51274,-1.67269 0.66244,-1.5969 0.22297,0.11288 -0.36887,1.43514 -1.17838,3.79434 -2.0848,6.07589 -0.41999,1.05716 -0.76362,1.97606 -0.76362,2.04199 0,0.22824 0.61965,0.70059 1.17707,0.89726 0.3079,0.10863 1.22045,0.30879 2.02788,0.44479 1.3159,0.22164 2.35945,0.24695 10.06908,0.24422 11.36883,-0.004 18.42292,-0.37151 18.65327,-0.97178 0.13938,-0.36322 -3.26552,-5.13569 -8.29167,-11.62196 -7.84052,-10.11826 -11.35758,-15.80277 -13.05345,-21.09786 -0.23291,-0.72724 -0.41918,-1.51961 -0.41391,-1.76084 0.006,-0.29307 0.13303,0.0108 0.38167,0.9159 0.93466,3.40217 2.53928,6.64497 5.49594,11.10685 2.1188,3.19745 4.45926,6.27407 10.51593,13.82354 6.36376,7.93225 7.05297,8.83758 7.00148,9.19711 -0.0566,0.39541 -0.79467,0.59681 -2.73175,0.74543 -2.23844,0.17173 -15.47218,0.25286 -22.84003,0.14 z"
     id="path7473"
     transform="translate(3262.56,2760.68)" />
  <path
     style="fill:#aa0000;stroke-width:0.135449"
     d="m 498.48741,217.29917 c 0.76462,-0.11583 0.32781,-0.28008 -1.08359,-0.40745 l -1.45608,-0.1314 2.32215,-0.0207 c 2.67335,-0.0238 4.9033,-0.22255 5.55561,-0.4951 0.36467,-0.15237 0.45237,-0.26479 0.45237,-0.57982 0,-0.49559 -0.44137,-1.12321 -3.44177,-4.89405 -1.32068,-1.65981 -2.37291,-3.04616 -2.33829,-3.08078 0.0346,-0.0346 0.69361,0.68752 1.46442,1.60476 1.25861,1.49768 5.42826,6.29646 6.59808,7.59361 l 0.45807,0.50793 -4.45172,-0.0203 c -2.44845,-0.0112 -4.28411,-0.0457 -4.07925,-0.0767 z"
     id="path7475"
     transform="translate(3262.56,2760.68)" />
  <path
     style="fill:#aa0000;stroke-width:0.135449"
     d="m 476.84938,217.11135 c 0.71019,-0.15498 19.01152,-0.15823 19.97878,-0.004 0.46221,0.0739 -3.29079,0.11964 -9.8878,0.12046 -6.37644,7.9e-4 -10.41589,-0.046 -10.09098,-0.11691 z"
     id="path7477"
     transform="translate(3262.56,2760.68)" />
  <path
     style="fill:#aa0000;stroke-width:0.135449"
     d="m 467.72434,217.09142 c 0.0895,-0.16762 0.40629,-0.70095 0.70394,-1.18518 0.29765,-0.48423 1.04825,-1.85566 1.66801,-3.04761 0.61976,-1.19195 1.12799,-2.10896 1.12939,-2.0378 10e-4,0.0712 -0.36316,1.05402 -0.81014,2.18411 -0.44698,1.13009 -0.8127,2.24363 -0.8127,2.47453 0,0.83441 1.19444,1.09655 5.62115,1.23363 1.71344,0.0531 2.71915,0.10699 2.23492,0.11984 -2.18767,0.0581 -3.47986,0.3308 -2.20106,0.46457 0.27937,0.0292 -1.33801,0.0634 -3.59417,0.0759 l -4.10211,0.0228 z"
     id="path7479"
     transform="translate(3262.56,2760.68)" />
  <path
     style="fill:#aa0000;stroke-width:0.135449"
     d="m 480.37107,215.75082 c -4.37217,-0.10484 -6.70181,-0.31227 -7.68586,-0.68435 -0.91485,-0.34591 -0.78148,-2.55794 0.35495,-5.88726 0.49714,-1.45642 0.60256,-2.14167 0.83009,-5.39569 0.3617,-5.17299 0.39633,-9.22262 0.13798,-16.13434 -0.27936,-7.47403 -0.23658,-12.18233 0.1248,-13.73223 0.49889,-2.13971 1.94145,-4.42749 4.11771,-6.53039 1.31594,-1.27156 2.878,-2.27382 3.54386,-2.27382 0.35602,0 0.34884,0.0818 -0.18132,2.06292 -0.19398,0.72487 -0.49163,2.24867 -0.66145,3.38623 -0.27322,1.83029 -0.30882,2.58263 -0.30931,6.53812 -4.9e-4,3.92675 0.0296,4.57679 0.24799,5.35024 0.98077,3.47418 3.8477,9.06981 6.79959,13.27134 0.55061,0.7837 1.62073,2.12587 2.37805,2.98258 1.60351,1.81399 2.15473,2.53489 2.15473,2.81802 0,0.32899 1.63871,2.69935 4.32575,6.25709 3.97438,5.26225 4.52332,6.16108 4.08516,6.68903 -0.78018,0.94005 -10.05713,1.52723 -20.26272,1.28251 z"
     id="path7481"
     transform="translate(3262.56,2760.68)" />
  <path
     style="fill:#aa0000;stroke-width:0.135449"
     d="m 473.62192,191.17268 c -0.59464,-4.55088 -0.76599,-6.44586 -0.85609,-9.4674 -0.21036,-7.05444 1.03575,-11.10855 4.40155,-14.3201 1.64593,-1.5705 4.39826,-3.35553 5.17447,-3.35593 0.90433,-4.6e-4 0.67198,1.66978 -0.74429,5.35014 -0.25801,0.67048 -0.47181,1.12762 -0.47513,1.01587 -0.0122,-0.41149 0.38998,-2.4326 0.73896,-3.71361 0.1976,-0.72531 0.32597,-1.40551 0.28528,-1.51155 -0.12265,-0.31963 -0.59588,-0.2213 -1.70037,0.35332 -2.71649,1.41327 -5.79168,5.4198 -6.4424,8.39353 -0.35619,1.62774 -0.40161,6.06308 -0.13629,13.30966 0.12972,3.54272 0.21071,6.51672 0.17999,6.60889 -0.0307,0.0922 -0.22228,-1.10611 -0.42568,-2.66282 z"
     id="path7483"
     transform="translate(3262.56,2760.68)" />
  <path
     style="fill:#aa0000;stroke-width:0.135449"
     d="m 473.48173,189.46112 c -0.56034,-4.66109 -0.66394,-6.37888 -0.59354,-9.8413 0.12345,-6.07056 1.14216,-8.97204 4.21411,-12.00258 1.73198,-1.70865 4.33993,-3.45265 5.16301,-3.45265 0.75167,0 0.66185,1.23349 -0.28905,3.96936 -0.85386,2.45664 -0.9077,2.33311 -0.24969,-0.57292 0.26018,-1.1491 0.47306,-2.20052 0.47306,-2.3365 0,-0.39281 -0.65657,-0.30749 -1.70878,0.22204 -2.64434,1.33081 -5.64323,5.14714 -6.4964,8.2672 -0.32203,1.17769 -0.40426,6.78161 -0.19536,13.31444 0.0936,2.9276 0.14206,5.35107 0.10766,5.38547 -0.0344,0.0344 -0.22566,-1.29425 -0.42502,-2.95256 z"
     id="path7485"
     transform="translate(3262.56,2760.68)" />
  <path
     style="fill:#aa0000;stroke-width:0.135449"
     d=""
     id="path7487"
     transform="translate(3262.56,2760.68)" />
  <path
     style="fill:#aa0000;stroke-width:0.135449"
     d=""
     id="path7489"
     transform="translate(3262.56,2760.68)" />
  <path
     style="fill:#aa0000;stroke-width:0.135449"
     d="m 473.89042,196.29212 c -0.0471,-0.50716 -0.35892,-2.44239 -0.69286,-4.30051 -0.76,-4.22882 -0.97319,-5.85232 -1.17842,-8.97371 -0.48585,-7.38964 1.20087,-13.03321 4.92887,-16.49133 1.38977,-1.28916 4.69567,-3.28929 6.14593,-3.71841 1.62957,-0.48217 1.50588,0.98355 -0.45739,5.41991 -0.6852,1.54833 -1.44001,3.63054 -1.69399,4.67301 -0.0363,0.14899 -0.0728,-0.003 -0.0811,-0.33863 -0.0101,-0.40649 0.19043,-1.19605 0.60196,-2.37036 1.31906,-3.76399 1.54893,-4.53588 1.54893,-5.20116 0,-0.68371 -0.23233,-1.09723 -0.61646,-1.09723 -0.41914,0 -1.41479,0.48909 -2.70205,1.32734 -1.58905,1.03476 -4.08529,3.46435 -4.7855,4.65771 -2.58336,4.40285 -2.94385,10.46852 -1.3066,21.98523 0.33549,2.35986 0.58307,5.35025 0.44297,5.35025 -0.0377,0 -0.10713,-0.41495 -0.15427,-0.92211 z"
     id="path7491"
     transform="translate(3262.56,2760.68)" />
  <path
     style="fill:#aa0000;stroke-width:0.135449"
     d=""
     id="path7493"
     transform="translate(3262.56,2760.68)" />
  <path
     style="fill:#aa0000;stroke-width:0.541797"
     d="m 209.73799,226.12518 c 0.82101,-0.98926 16.37695,-13.46576 22.69307,-18.20077 8.66017,-6.49228 12.80817,-8.22301 14.06767,-5.86962 0.97579,1.82328 0.61504,3.34239 -1.19998,5.05301 -4.3114,4.06342 -18.24153,12.13323 -30.07316,17.42157 -6.17699,2.76091 -6.54285,2.8673 -5.4876,1.59581 z"
     id="path7495"
     transform="translate(3262.56,2760.68)" />
  <path
     style="fill:#aa0000;stroke-width:0.541797"
     d="m 322.21569,146.55921 c -6.7962,-1.86903 -15.08069,-6.92628 -20.93277,-12.77836 -5.39822,-5.39821 -8.8192,-11.23393 -10.57638,-18.04182 -1.38089,-5.34999 -0.24652,-5.49008 5.0556,-0.62432 4.88585,4.48374 7.18438,5.91234 12.37506,7.69141 5.60137,1.91984 13.65842,2.05839 19.37929,0.33323 5.21083,-1.57134 8.93966,-2.28448 8.93966,-1.70969 0,0.26262 -3.28904,2.91258 -7.30897,5.8888 -14.7088,10.88987 -15.04254,12.35581 -2.96595,13.02784 9.08604,0.50562 11.60312,1.89094 8.51408,4.68589 -2.57766,2.33226 -7.40414,2.92283 -12.47962,1.52702 z"
     id="path7497"
     transform="translate(3262.56,2760.68)" />
  <path
     style="fill:#aa0000;stroke-width:0.541797"
     d="m 359.20169,127.84429 c -2.8128,-0.66819 -6.67685,-2.41933 -7.4837,-3.39153 -0.60092,-0.72406 -0.48359,-0.99609 0.7893,-1.83012 1.22233,-0.8009 2.91562,-1.01638 9.28005,-1.18095 11.09437,-0.28688 15.33607,1.06625 12.57051,4.01006 -2.35832,2.51032 -9.74905,3.67701 -15.15616,2.39254 z"
     id="path7499"
     transform="translate(3262.56,2760.68)" />
  <path
     style="fill:#aa0000;stroke-width:0.541797"
     d="m 437.95566,184.78896 c -3.22816,-1.46574 -6.53801,-5.01831 -8.41757,-9.03485 -1.49684,-3.19868 -1.61061,-3.85839 -1.43644,-8.32989 0.16192,-4.15712 0.36341,-5.03027 1.39982,-6.06618 l 1.21068,-1.21009 1.49831,1.0996 c 2.30236,1.68969 5.28507,6.43323 7.73491,12.30115 2.45199,5.8731 3.26114,10.14981 2.16925,11.46547 -0.87347,1.05246 -1.40885,1.02347 -4.15896,-0.22521 z"
     id="path7501"
     transform="translate(3262.56,2760.68)" />
  <path
     style="fill:#aa0000;stroke-width:0.541797"
     d="m 439.26216,225.35763 c -3.54898,-0.99573 -7.69687,-5.10892 -9.87893,-9.79629 -2.16253,-4.64542 -1.75897,-13.87096 0.64716,-14.79428 2.05042,-0.78682 5.58461,3.32752 8.84659,10.29878 4.84894,10.36279 4.98965,15.58366 0.38518,14.29179 z"
     id="path7503"
     transform="translate(3262.56,2760.68)" />
</svg>
