<?xml version="1.0" encoding="UTF-8" standalone="no"?>
<svg
   viewBox="2344.44 449.9 740.7 776.8"
   version="1.1"
   id="svg12"
   xmlns="http://www.w3.org/2000/svg">
  <defs
     id="defs16" />
  <path
     d="m 2599.5438,500.625 c 0,66 22,175 49,244 27,67 68,132 84,131 9,0 9,-2 0,-5 -8,-4 2,-31 28,-82 42,-83 69,-190 69,-278 0,-48 2,-54 20,-54 12,0 43,11 71,25 85,44 137,153 160,336 11,95 1,249 -23,333 -10,37 -39,76 -57,76 -3,0 -5,-31 -3,-69 2,-38 -1,-78 -7,-88 -9,-18 -15,-18 -71,-9 -44,7 -74,7 -113,-3 -99,-23 -107,-23 -149,-6 -33,13 -65,16 -133,13 l -90,-3 v 83 c 0,45 -1,82 -2,82 -1,0 -13,-4 -26,-9 -40,-15 -62,-123 -62,-301 1,-280 72,-426 227,-464 28,-6 28,-6 28,48 z m 311,330 c -31,1 -70,8 -88,17 -23,12 -34,14 -43,5 -8,-8 -9,-6 -4,9 4,11 4,17 0,14 -4,-4 -19,4 -33,17 l -26,24 -36,-22 c -78,-47 -117,-61 -165,-62 -41,0 -53,5 -72,28 -32,36 -30,77 3,117 58,68 135,77 213,24 52,-35 52,-35 76,-16 13,10 21,21 19,25 -3,3 -2,4 2,1 3,-3 12,0 19,6 42,35 131,27 182,-16 16,-13 31,-22 34,-20 3,3 5,-1 6,-8 1,-6 5,-27 8,-45 5,-25 1,-41 -14,-62 -16,-21 -18,-30 -9,-40 9,-10 9,-11 -2,-5 -8,5 -39,9 -70,9 z"
     stroke="#ff0000"
     stroke-width="0.1"
     fill="#000000"
     id="path10" />
  <path
     style="fill:#a9ac5f;fill-opacity:1"
     d="m 2832.634,489.12673 c 0.5746,29.904 0.7822,60.3585 -8.4333,104.9476 l -22.4888,98.38846 c -13.6755,47.7053 -38.1974,101.6087 -69.3404,159.2955 l -1.8741,16.8666 9.3703,6.5592 -9.3703,0.937 -21.5517,-18.7406 c -59.6765,-85.4673 -87.4541,-184.7895 -104.0107,-286.73196 l -11.2443,-118.0661 c 117.6704,-10.4326 120.7075,-7.4472 248.3136,3.7481 z"
     id="path1110"/>
</svg>
