<?xml version="1.0" encoding="UTF-8" standalone="no"?>
<svg
   viewBox="321.9 1751.85 706.9 728.5"
   version="1.1"
   id="svg5638"
   xmlns="http://www.w3.org/2000/svg">
  <defs
     id="defs5642" />
  <path
     d="m 936,1792.2419 c -47,62 -188,195 -228,216 -33,17 -72,12 -99,-12 -15,-13 -18,-13 -32,1 -22,21 -34,19 -13,-4 14,-15 14,-20 3,-29 -8,-7 -17,-10 -20,-7 -4,3 -5,2 -2,-2 6,-7 -14,-33 -26,-33 -5,0 -13,9 -19,20 -8,16 -7,24 4,36 9,8 21,12 27,8 8,-4 9,-3 5,4 -10,16 87,100 116,102 3,0 9,-8 12,-18 3,-10 4,-6 3,8 -2,20 2,24 18,22 l 20,-4 -20,16 -20,15 20,1 20,1 -20,9 c -11,5 -14,9 -6,9 11,1 11,4 0,18 -11,13 -11,17 -1,21 10,3 10,7 0,20 -11,15 -10,15 7,0 37,-31 132,-69 168,-66 19,1 47,13 63,26 16,13 23,21 17,18 -9,-5 -11,-2 -7,8 3,9 9,14 13,12 3,-2 7,15 9,37 1,23 6,43 10,45 4,1 4,44 1,95 -4,50 -6,93 -5,95 5,4 58,-223 55,-233 -2,-6 0,-20 5,-32 4,-13 2,-31 -4,-44 -7,-13 -8,-19 -2,-15 15,9 26,-94 18,-177 -7,-71 -33,-202 -45,-225 -5,-8 -20,5 -45,38 z m 44,44 c 0,2 -8,10 -17,17 -16,13 -17,12 -4,-4 13,-16 21,-21 21,-13 z m 12,96 -9,24 -5,-22 c -4,-12 -2,-20 3,-16 5,3 9,-3 10,-13 0,-10 3,-13 5,-7 3,6 1,21 -4,34 z m -37,-20 c 3,6 -1,7 -9,4 -18,-7 -21,-14 -7,-14 6,0 13,4 16,10 z m -55,35 c -7,9 -15,13 -17,11 -6,-6 20,-36 26,-30 2,2 -2,10 -9,19 z m 107,27 c -3,8 -6,5 -6,-6 -1,-11 2,-17 5,-13 3,3 4,12 1,19 z m -160,22 c -12,19 -30,37 -39,39 -11,3 -4,-10 19,-34 20,-21 38,-39 40,-39 1,0 -8,15 -20,34 z m 68,-14 c 3,5 1,10 -4,10 -6,0 -11,-5 -11,-10 0,-6 2,-10 4,-10 3,0 8,4 11,10 z m 102,57 c -3,10 -5,4 -5,-12 0,-17 2,-24 5,-18 2,7 2,21 0,30 z m -401,11 c -4,3 -14,-2 -24,-12 -16,-18 -16,-18 6,-6 13,6 21,14 18,18 z m 28,-16 c -5,8 -2,9 9,5 10,-3 17,-2 17,3 0,12 -27,13 -34,1 -3,-4 -3,-11 1,-15 10,-10 15,-7 7,6 z m 159,74 c 8,8 -3,34 -15,34 -6,0 -4,-8 3,-17 12,-15 12,-16 -3,-10 -10,3 -18,2 -18,-3 0,-11 23,-14 33,-4 z m 82,11 c 19,9 35,24 34,32 0,12 -2,13 -6,2 -3,-7 -24,-21 -47,-32 -22,-10 -36,-19 -29,-19 7,0 28,8 48,17 z m 62,35 c -3,8 -6,5 -6,-6 -1,-11 2,-17 5,-13 3,3 4,12 1,19 z m -177,-8 c 0,3 -4,8 -10,11 -5,3 -10,1 -10,-4 0,-6 5,-11 10,-11 6,0 10,2 10,4 z m 220,133 c -9,16 -10,15 -5,-5 4,-13 2,-22 -4,-22 -6,0 -11,-8 -11,-17 0,-14 3,-14 16,5 11,17 12,26 4,39 z m -7,53 c -3,12 -8,19 -11,16 -5,-6 5,-36 12,-36 2,0 2,9 -1,20 z m -621,-563 c -12,23 -34,124 -28,130 5,5 26,-64 26,-87 0,-12 2,-12 9,-1 5,8 17,11 32,6 19,-5 21,-4 9,4 -11,8 -12,11 -2,11 7,0 10,5 6,11 -4,8 -9,7 -15,-2 -4,-7 -10,-11 -13,-8 -3,2 20,31 51,64 30,33 52,52 49,42 -3,-10 -2,-15 3,-12 5,3 13,0 16,-6 4,-6 -8,-26 -26,-44 -19,-18 -42,-45 -52,-59 -10,-15 -23,-23 -29,-20 -6,4 -9,3 -5,-2 3,-5 -1,-17 -8,-27 -13,-18 -14,-18 -23,0 z m 93,113 c 3,5 1,10 -4,10 -6,0 -11,-5 -11,-10 0,-6 2,-10 4,-10 3,0 8,4 11,10 z m -133,70 c 0,19 2,27 5,17 2,-9 2,-25 0,-35 -3,-9 -5,-1 -5,18 z"
     stroke="#ff0000"
     stroke-width="0.1"
     fill="#000000"
     id="path5636" />
</svg>
