<?xml version="1.0" encoding="UTF-8" standalone="no"?>
<svg
   viewBox="1313.4 450.753 746.7 762.9"
   version="1.1"
   id="svg5597"
   xmlns="http://www.w3.org/2000/svg">
  <defs
     id="defs5601" />
  <path
     d="m 1336,459.4497 c -14,38 -27,216 -21,295 7,94 43,329 53,345 8,12 9,18 11,53 0,16 8,37 16,48 14,17 15,11 13,-74 -2,-50 -1,-92 2,-92 3,0 22,5 44,11 45,12 110,4 100,-13 -5,-7 -2,-8 5,-3 18,10 63,-16 56,-32 -2,-8 -1,-11 5,-8 5,3 17,-6 26,-20 23,-36 56,-32 85,9 13,19 37,42 54,52 31,19 109,25 155,12 l 25,-7 -5,94 c -5,88 -4,93 12,77 30,-31 88,-376 88,-524 0,-68 -17,-216 -27,-231 -3,-5 -38,22 -77,60 -39,38 -107,100 -151,138 -44,38 -89,77 -101,87 -23,20 -12,26 -104,-56 -19,-18 -28,-22 -21,-11 7,11 -3,2 -23,-20 -20,-22 -41,-39 -47,-37 -6,1 -8,-2 -5,-7 3,-5 -1,-14 -9,-21 -8,-7 -15,-9 -15,-5 0,3 -12,-7 -26,-24 -14,-17 -31,-28 -36,-24 -6,3 -8,2 -5,-4 3,-5 -11,-27 -32,-47 -32,-31 -39,-35 -45,-21 z m 165,321 c 49,24 139,104 139,123 0,15 -77,41 -121,41 -22,0 -49,-5 -61,-11 -28,-15 -48,-69 -48,-129 0,-44 3,-50 20,-50 12,0 43,12 71,26 z m 459,24 c 0,60 -20,114 -48,129 -12,6 -39,11 -61,11 -43,0 -121,-26 -121,-41 0,-33 161,-149 208,-149 20,0 22,5 22,50 z"
     stroke="#ff0000"
     stroke-width="0.1"
     fill="#000000"
     id="path5595" />
</svg>
